<?xml version="1.0" encoding="UTF-8"?>
<svg id="Camada_1" data-name="Camada 1" xmlns="http://www.w3.org/2000/svg" version="1.1" viewBox="0 0 116.9 35">
  <defs>
    <style>
      .cls-1 {
        fill: #00db80;
      }

      .cls-1, .cls-2, .cls-3, .cls-4 {
        stroke-width: 0px;
      }

      .cls-2, .cls-4 {
        fill: #06d889;
      }

      .cls-3 {
        fill: #fff;
      }

      .cls-5 {
        display: none;
      }

      .cls-4 {
        fill-rule: evenodd;
      }
    </style>
  </defs>
  <g class="cls-5">
    <path class="cls-3" d="M17.2,31c-1.3,0-2.5-.1-3.7-.4-1.2-.3-2.2-.7-3.1-1.3-.9-.6-1.6-1.3-2.1-2.2-.5-.9-.8-2-.8-3.2v-.4c0-.1,0-.2,0-.3h4.5s0,.1,0,.3v.3c0,.7.2,1.4.6,1.9.4.5,1.1.9,1.9,1.2.8.3,1.8.4,2.9.4s1.4,0,2-.1c.6,0,1.1-.2,1.5-.4.4-.2.8-.4,1.1-.6.3-.2.5-.5.6-.8.1-.3.2-.6.2-.9,0-.7-.2-1.2-.6-1.6-.4-.4-1-.8-1.7-1.1-.7-.3-1.5-.5-2.3-.8-.9-.2-1.8-.5-2.7-.7-.9-.2-1.8-.5-2.7-.9-.9-.4-1.6-.8-2.3-1.3-.7-.5-1.2-1.1-1.6-1.9-.4-.8-.6-1.7-.6-2.7s.2-2,.7-2.8c.5-.8,1.1-1.5,2-2,.9-.5,1.9-.9,3-1.2,1.1-.3,2.4-.4,3.7-.4s2.4.1,3.5.4c1.1.2,2.1.7,2.9,1.2.8.5,1.5,1.2,2,2.1.5.8.7,1.8.7,3v.4h-4.4v-.3c0-.7-.2-1.2-.6-1.6-.4-.4-.9-.8-1.7-1-.7-.2-1.5-.4-2.5-.4s-1.9.1-2.6.3c-.7.2-1.3.5-1.7.8-.4.4-.6.8-.6,1.3s.2,1,.6,1.4c.4.4,1,.7,1.6,1,.7.3,1.5.5,2.3.7.9.2,1.8.5,2.7.7.9.2,1.8.5,2.7.9.9.3,1.7.8,2.3,1.3.7.5,1.3,1.1,1.7,1.9.4.7.6,1.6.6,2.7,0,1.7-.4,3.1-1.3,4.2-.8,1.1-2,1.8-3.5,2.3-1.5.5-3.2.7-5.1.7Z"/>
    <path class="cls-3" d="M38.8,31c-1.9,0-3.6-.3-4.9-1-1.3-.7-2.3-1.7-3-3.1-.7-1.4-1-3.1-1-5.2s.3-3.9,1-5.2c.7-1.4,1.6-2.4,3-3,1.3-.7,2.9-1,4.9-1s3.6.3,4.9,1c1.3.7,2.3,1.7,3,3,.7,1.3,1,3.1,1,5.2s-.3,3.8-1,5.2c-.7,1.4-1.6,2.4-3,3.1-1.3.7-2.9,1-4.9,1ZM38.8,27.6c1.1,0,2-.2,2.6-.6.7-.4,1.2-1.1,1.5-1.9.3-.9.5-1.9.5-3.2v-.5c0-1.3-.2-2.3-.5-3.1-.3-.9-.8-1.5-1.5-1.9-.7-.4-1.5-.6-2.6-.6s-2,.2-2.7.6c-.7.4-1.1,1-1.5,1.9-.3.8-.4,1.9-.4,3.1v.5c0,1.3.1,2.3.4,3.2.3.8.8,1.5,1.5,1.9.7.4,1.6.6,2.7.6Z"/>
    <path class="cls-3" d="M52,30.6v-14.3h-2.6v-3.4h2.6v-2.3c0-.8.1-1.5.4-2.2.3-.7.7-1.3,1.4-1.7.7-.4,1.6-.7,2.8-.7s.7,0,1,0c.4,0,.7.1,1,.2.3,0,.6.1.8.2v2.9h-1.7c-.5,0-.9.1-1.2.4-.2.2-.4.6-.4,1.1v2h3.2v3.4h-3.2v14.3h-4.1Z"/>
    <path class="cls-3" d="M66.3,31c-1.1,0-2-.2-2.6-.6-.6-.4-1.1-1-1.4-1.7-.2-.7-.4-1.4-.4-2.1v-10.3h-2.1v-3.4h2.2l.7-4.9h3.3v4.9h3.1v3.4h-3.1v9.9c0,.5.1.8.4,1.1.2.2.6.4,1.1.4h1.6v2.8c-.2,0-.5.2-.8.2-.3,0-.7.2-1,.2-.4,0-.7.1-1,.1Z"/>
    <path class="cls-2" d="M81.7,31c-1.9,0-3.4-.3-4.7-1-1.2-.7-2.1-1.7-2.8-3.1s-.9-3.1-.9-5.2.3-3.9.9-5.2c.6-1.4,1.6-2.4,2.8-3,1.2-.7,2.8-1,4.6-1s2.3.1,3.2.4c.9.3,1.7.7,2.4,1.3.7.6,1.2,1.3,1.5,2.2.3.9.5,1.9.5,3.1h-4.2c0-.8-.1-1.5-.4-2.1-.2-.5-.6-.9-1.2-1.2-.5-.3-1.1-.4-1.9-.4s-1.7.2-2.3.6c-.6.4-1,1.1-1.3,1.9-.3.8-.4,1.9-.4,3.2v.4c0,1.3.1,2.3.4,3.2.3.9.7,1.5,1.4,1.9.6.4,1.4.6,2.4.6s1.4-.1,1.9-.4c.5-.3.9-.7,1.2-1.3.3-.6.4-1.2.4-2h4c0,1.1-.2,2.1-.5,3-.3.9-.8,1.6-1.5,2.2-.7.6-1.5,1.1-2.4,1.4-.9.3-2,.5-3.2.5Z"/>
    <path class="cls-3" d="M100.6,31c-1.9,0-3.6-.3-4.9-1-1.3-.7-2.3-1.7-3-3.1-.7-1.4-1-3.1-1-5.2s.3-3.9,1-5.2c.7-1.4,1.6-2.4,3-3,1.3-.7,2.9-1,4.9-1s3.6.3,4.9,1c1.3.7,2.3,1.7,3,3,.7,1.3,1,3.1,1,5.2s-.3,3.8-1,5.2-1.6,2.4-3,3.1c-1.3.7-2.9,1-4.9,1ZM100.6,27.6c1.1,0,2-.2,2.6-.6.7-.4,1.2-1.1,1.5-1.9.3-.9.5-1.9.5-3.2v-.5c0-1.3-.2-2.3-.5-3.1-.3-.9-.8-1.5-1.5-1.9-.7-.4-1.5-.6-2.6-.6s-2,.2-2.7.6c-.7.4-1.1,1-1.5,1.9-.3.8-.4,1.9-.4,3.1v.5c0,1.3.1,2.3.4,3.2.3.8.8,1.5,1.5,1.9.7.4,1.6.6,2.7.6Z"/>
    <path class="cls-3" d="M113,30.6V12.9h3.5l.3,2.4h.2c.4-.5.9-1,1.4-1.4.6-.4,1.2-.8,1.9-1,.7-.2,1.5-.4,2.4-.4s2.1.2,3,.6c.9.4,1.6,1.1,2.1,2,.5.9.7,2.1.7,3.6v11.9h-4.2v-11.2c0-.6,0-1.1-.2-1.5-.1-.4-.4-.8-.6-1-.3-.3-.6-.5-1-.6-.4-.1-.9-.2-1.4-.2-.7,0-1.4.2-2,.5-.6.4-1.1.9-1.4,1.5-.3.6-.5,1.4-.5,2.2v10.3h-4.1Z"/>
    <path class="cls-3" d="M132.8,10.2v-3.9h4.1v3.9h-4.1ZM132.8,30.6V12.9h4.1v17.7h-4.1Z"/>
    <path class="cls-3" d="M148.8,31c-1.9,0-3.4-.3-4.7-1-1.2-.7-2.1-1.7-2.8-3.1s-.9-3.1-.9-5.2.3-3.9.9-5.2c.6-1.4,1.6-2.4,2.8-3,1.2-.7,2.8-1,4.6-1s2.3.1,3.2.4c.9.3,1.7.7,2.4,1.3.7.6,1.2,1.3,1.5,2.2.3.9.5,1.9.5,3.1h-4.2c0-.8-.1-1.5-.4-2.1-.2-.5-.6-.9-1.2-1.2-.5-.3-1.1-.4-1.9-.4s-1.7.2-2.3.6c-.6.4-1,1.1-1.3,1.9-.3.8-.4,1.9-.4,3.2v.4c0,1.3.1,2.3.4,3.2.3.9.7,1.5,1.4,1.9.6.4,1.4.6,2.4.6s1.4-.1,1.9-.4c.5-.3.9-.7,1.2-1.3.3-.6.4-1.2.4-2h4c0,1.1-.2,2.1-.5,3-.3.9-.8,1.6-1.5,2.2-.7.6-1.5,1.1-2.4,1.4-.9.3-2,.5-3.2.5Z"/>
    <path class="cls-4" d="M-10.2,7.2c-5-4.7-11.7-4.1-17.2-.4,0,0-.5.3,0-.4C-16.8-5.1,2.7,10.6-8.2,23.7c2.4-5.2,3.1-11.8-2-16.5h0Z"/>
    <path class="cls-4" d="M-14.7,1.8c-17.3-5.1-32.1,21.4-12.9,33.2C-49.1,25.8-38.5-2.2-19.5.1c1.6.2,3.9.9,4.8,1.6h0Z"/>
    <path class="cls-4" d="M-10.1,18.8c0,5.7-4.7,10.3-10.4,10.3s-10.4-4.6-10.4-10.3,4.7-10.3,10.4-10.3,10.4,4.6,10.4,10.3ZM-28.1,20.1c-.8,1.2.1,4.2,2.8,5.9,2.7,1.8,6.1,1.6,6.9.5.8-1.2-.9-.4-3.9-1.5-5-1.8-5-6-5.8-4.9Z"/>
    <path class="cls-4" d="M-3.9,12.1c7.1,13.5-12.5,30.7-26.2,18.5-1.7-1.6-2.5-3-3.8-5C-23.3,40.2.1,28.7-4.1,12.4c-.2-.6,0-.7.2-.2h0Z"/>
  </g>
  <g>
    <g>
      <path class="cls-1" d="M44.6,22.4l-3.2,1.2,1-4.6,5.4-2.4h4.1l-3.8,17.7h-6l2.5-11.9Z"/>
      <path class="cls-1" d="M54.2,34.2c-.9-.2-1.5-.5-1.9-1.1-.4-.5-.6-1.3-.6-2.4s.3-3,.8-5.6c.6-2.9,1.2-4.9,1.7-6.1s1.3-1.9,2.3-2.2c1-.4,2.6-.5,5-.5s3,0,3.9.3c.9.2,1.5.5,1.9,1.1.4.5.6,1.3.6,2.4s0,1.4-.2,2.2c-.1.9-.3,2-.6,3.3-.6,2.9-1.1,4.9-1.7,6.1s-1.3,1.9-2.3,2.3-2.7.5-5,.5-3,0-3.9-.3ZM59.7,30c.2-.2.4-.5.5-1.1s.4-1.7.8-3.5c.2-1,.4-1.8.5-2.5.1-.7.2-1.2.2-1.5s0-.6-.2-.6c-.1,0-.4-.1-.8-.1s-.8,0-1,.2c-.2.2-.4.5-.5,1.1-.2.6-.4,1.7-.8,3.5-.2,1-.4,1.8-.5,2.5-.1.7-.2,1.2-.2,1.5s0,.6.2.6c.1,0,.4.1.8.1s.8,0,1-.2Z"/>
      <path class="cls-1" d="M72.3,27.4l-2.8-6.2h5.7l1,3.2h.2l2.2-3.2h5.7l-5.4,6.6,2.9,6.5h-5.7l-1.1-3.5h-.2l-2.4,3.5h-5.7l5.6-6.9Z"/>
    </g>
    <g>
      <path class="cls-3" d="M44.8,7.9c.6,0,1,0,1.3.2s.5.4.6.7.2.8.2,1.4,0,1-.1,1.3c0,.3-.3.6-.6.8-.3.2-.7.3-1.3.3h-1.2v2h-2.3v-6.7h3.4ZM44.4,10.9c0,0,.1,0,.2-.2,0,0,0-.3,0-.5s0-.4,0-.5c0-.1,0-.2-.2-.2,0,0-.2,0-.4,0h-.3v1.5h.3c.2,0,.3,0,.4,0Z"/>
      <path class="cls-3" d="M51,14.6l-.7-2.2h-.5v2.2h-2.3v-6.7h3.5c.6,0,1,0,1.3.2.3.2.5.4.6.7.1.3.2.7.2,1.3s0,.9-.2,1.2c-.1.3-.3.5-.6.7l.9,2.5h-2.3ZM50.7,10.8c0,0,.1,0,.2-.2,0,0,0-.2,0-.5s0-.4,0-.5c0,0,0-.1-.2-.2,0,0-.2,0-.5,0h-.4v1.4h.4c.2,0,.3,0,.4,0Z"/>
      <path class="cls-3" d="M54.8,14.4c-.4-.2-.7-.5-.8-.9s-.1-1.2-.1-2.2,0-1.8.1-2.2.3-.7.8-.9c.4-.2,1.1-.3,2.1-.3s1.7,0,2.1.3c.4.2.7.5.8.9s.1,1.2.1,2.2,0,1.8-.1,2.2-.4.7-.8.9c-.4.2-1.1.3-2.1.3s-1.7,0-2.1-.3ZM57.4,13c0,0,.1-.2.2-.4,0-.2,0-.6,0-1.3s0-1.1,0-1.3c0-.2,0-.4-.2-.4,0,0-.2,0-.5,0s-.4,0-.5,0c0,0-.1.2-.2.4,0,.2,0,.6,0,1.3s0,1.1,0,1.3,0,.4.2.4c0,0,.2,0,.5,0s.4,0,.5,0Z"/>
      <path class="cls-3" d="M61.8,14.4c-.4-.2-.7-.5-.9-1s-.2-1.2-.2-2.1,0-1.6.2-2.1.5-.8.9-1c.4-.2,1.1-.3,1.9-.3s.8,0,1.2,0c.5,0,.9,0,1.2.2v1.5c-.3,0-.6,0-1,0-.3,0-.6,0-.8,0-.6,0-.9,0-1.1,0-.2,0-.3.2-.4.4,0,.2,0,.7,0,1.3s0,1,0,1.2c0,.2.1.4.2.5.1,0,.3.1.6.1h.4v-1.1h-.6v-1.5h2.6v3.9c-.4,0-.8.1-1.3.1-.5,0-.9,0-1.2,0-.9,0-1.5,0-1.9-.3Z"/>
      <path class="cls-3" d="M70.6,14.6l-.7-2.2h-.5v2.2h-2.3v-6.7h3.5c.6,0,1,0,1.3.2.3.2.5.4.6.7.1.3.2.7.2,1.3s0,.9-.2,1.2c-.1.3-.3.5-.6.7l.9,2.5h-2.3ZM70.3,10.8c0,0,.1,0,.2-.2,0,0,0-.2,0-.5s0-.4,0-.5c0,0,0-.1-.2-.2,0,0-.2,0-.5,0h-.4v1.4h.4c.2,0,.3,0,.4,0Z"/>
      <path class="cls-3" d="M75,7.9h3.2l1.9,6.7h-2.3l-.2-1h-1.9l-.2,1h-2.2l1.9-6.7ZM77.1,12l-.6-2.3h0l-.5,2.3h1.2Z"/>
      <path class="cls-3" d="M80.5,7.9h3.1l.7,3.1h0l.7-3.1h3.1v6.7h-2.2v-3.8h-.1l-.9,3.8h-1.5l-.9-3.8h-.1v3.8h-2.1v-6.7Z"/>
      <path class="cls-3" d="M90.6,7.9h3.2l1.9,6.7h-2.3l-.2-1h-1.9l-.2,1h-2.2l1.9-6.7ZM92.7,12l-.6-2.3h0l-.5,2.3h1.2Z"/>
      <path class="cls-3" d="M98.5,7.9c1,0,1.8,0,2.2.3.4.2.7.5.8.9.1.4.2,1.1.2,2.2s0,1.7-.2,2.2c-.1.4-.4.7-.8.9s-1.2.3-2.2.3h-2.5v-6.7h2.5ZM99.1,12.9c.1,0,.2-.2.2-.4,0-.2,0-.6,0-1.2s0-1,0-1.2c0-.2,0-.3-.2-.4,0,0-.3,0-.6,0h-.2v3.4h.2c.3,0,.5,0,.6,0Z"/>
      <path class="cls-3" d="M103.4,14.4c-.4-.2-.7-.5-.8-.9s-.1-1.2-.1-2.2,0-1.8.1-2.2.3-.7.8-.9c.4-.2,1.1-.3,2.1-.3s1.7,0,2.1.3c.4.2.7.5.8.9s.1,1.2.1,2.2,0,1.8-.1,2.2-.4.7-.8.9c-.4.2-1.1.3-2.1.3s-1.7,0-2.1-.3ZM105.9,13c0,0,.1-.2.2-.4,0-.2,0-.6,0-1.3s0-1.1,0-1.3c0-.2,0-.4-.2-.4,0,0-.2,0-.5,0s-.4,0-.5,0c0,0-.1.2-.2.4,0,.2,0,.6,0,1.3s0,1.1,0,1.3,0,.4.2.4c0,0,.2,0,.5,0s.4,0,.5,0Z"/>
      <path class="cls-3" d="M112.7,14.6l-.7-2.2h-.5v2.2h-2.3v-6.7h3.5c.6,0,1,0,1.3.2.3.2.5.4.6.7.1.3.2.7.2,1.3s0,.9-.2,1.2c-.1.3-.3.5-.6.7l.9,2.5h-2.3ZM112.4,10.8c0,0,.1,0,.2-.2,0,0,0-.2,0-.5s0-.4,0-.5c0,0,0-.1-.2-.2,0,0-.2,0-.5,0h-.4v1.4h.4c.2,0,.3,0,.4,0Z"/>
    </g>
    <g>
      <path class="cls-3" d="M15.7,28.7c0-.6.5-1.1,1.1-1.1h6.9c.6,0,1.1.5,1.1,1.1s-.5,1.1-1.1,1.1h-6.9c-.6,0-1.1-.5-1.1-1.1M8.8,18.5c0-3,2.8-5.3,5.8-5,3.8.4,7.6.4,11.4,0,3-.3,5.8,2,5.8,5v2.7c0,1.1-.7,2-1.8,2.1-1.9.3-5.4.8-9.7.8s-7.8-.5-9.7-.8c-1-.2-1.8-1.1-1.8-2.1v-2.7ZM19.2,16.6c-.2,0-.4,0-.5.2l-2.1,2.1c-1.4,0-2.9-.2-4.3-.4-.3,0-.6.2-.6.5,0,.3.2.6.5.6,1.3.2,2.8.3,4.6.4.2,0,.3,0,.4-.2l1.7-1.7,1.9,3.9c.1.3.5.4.8.3,0,0,.1,0,.2-.1l2.1-2.2c1.5,0,3-.2,4.4-.4.3,0,.5-.4.5-.7,0-.3-.3-.5-.6-.5-1.2.2-2.8.3-4.6.4-.1,0-.3,0-.4.2l-1.7,1.8-1.9-3.9c0-.2-.2-.3-.4-.3"/>
      <path class="cls-3" d="M21.4,4.3c1.1-.6,1.5-2,.8-3.1-.6-1.1-2-1.5-3.1-.8-1.1.6-1.5,2-.8,3.1.2.3.5.6.8.8v2.6h-4.6c-5.7,0-10.3,4.6-10.3,10.3v1.1c-1.3,0-2.3,1-2.3,2.3v4.6c0,1.3,1,2.3,2.3,2.3v2.3c0,2.5,2.1,4.6,4.6,4.6h23c2.5,0,4.6-2.1,4.6-4.6v-2.3c1.3,0,2.3-1,2.3-2.3v-4.6c0-1.3-1-2.3-2.3-2.3v-1.1c0-5.7-4.6-10.3-10.3-10.3h-4.6v-2.6ZM34,17.2v12.6c0,1.3-1,2.3-2.3,2.3H8.8c-1.3,0-2.3-1-2.3-2.3v-12.6c0-4.4,3.6-8,8-8h11.5c4.4,0,8,3.6,8,8"/>
    </g>
  </g>
</svg>