<?xml version="1.0" encoding="UTF-8"?><svg id="Camada_1" xmlns="http://www.w3.org/2000/svg" xmlns:xlink="http://www.w3.org/1999/xlink" viewBox="0 0 237 55"><defs><style>.cls-1{clip-path:url(#clippath);}.cls-2{fill:none;}.cls-2,.cls-3{stroke-width:0px;}.cls-3{fill:#fff;}</style><clipPath id="clippath"><rect class="cls-2" x="23.17" y="7.5" width="190.67" height="40"/></clipPath></defs><g class="cls-1"><path class="cls-3" d="M135.33,35.95V14.98c0-7.17,7.47-8.68,12.83-6.64v4c-3.69-1.51-7.85-1.13-7.85,3.47h5.96v4h-5.96v16.08l-4.99.08h.01Z"/><path class="cls-3" d="M159.1,12.71h3.69l.76,3.09h4.6v4h-4.08v9.28c0,1.88.83,2.79,2.41,2.79h2.56v4h-4.99c-3.32,0-5.05-1.81-5.05-5.36V12.71h.09Z"/><rect class="cls-3" x="150.19" y="15.81" width="5.05" height="20.08"/><rect class="cls-3" x="150.19" y="8.55" width="5.05" height="4.15"/><path class="cls-3" d="M173.37,35.87c-4.45,7.01-12.23,11.63-21.13,11.63s-16.68-4.6-21.13-11.63c5.21,4.83,12.76,7.77,21.13,7.77,8.37.08,15.92-2.95,21.13-7.77"/><path class="cls-3" d="M64.23,31.27v-2.72c1.44.6,3.17.91,5.05.91,1.44,0,2.11-.45,2.11-1.36,0-.83-.45-1.28-1.44-1.28h-2.33c-2.64,0-4-1.36-4-4s1.96-4.08,5.81-4.08c1.67,0,3.17.23,4.68.76v2.72c-1.44-.6-3.01-.91-4.76-.91s-2.64.45-2.64,1.36c0,.83.53,1.28,1.59,1.28h2.11c2.87,0,4.37,1.36,4.37,4s-1.88,4.08-5.59,4.08c-1.88,0-3.47-.31-4.99-.76M76.99,31.87v-13.05h2.56l.37,1.67c1.51-1.13,3.01-1.67,4.45-1.67,1.67,0,2.79.6,3.47,1.81,1.67-1.21,3.24-1.81,4.68-1.81,2.79,0,4.15,1.67,4.15,4.99v8.08h-3.32v-8.23c0-1.44-.6-2.19-1.81-2.19-.99,0-2.04.53-3.09,1.67v8.76h-3.32v-8.23c0-1.51-.6-2.19-1.81-2.19-1.05,0-2.11.53-3.09,1.67v8.76h-3.24v-.04ZM99.18,27.81c0-2.72,1.88-4,5.65-4,1.13,0,2.19.08,3.01.23v-.83c0-1.13-1.13-1.73-3.4-1.73-1.44,0-2.87.23-4.23.6v-2.64c1.44-.37,2.87-.6,4.23-.6,4.45,0,6.72,1.44,6.72,4.31v8.76h-1.67l-1.44-.91c-1.13.6-2.33.91-3.63.91-3.55,0-5.28-1.36-5.28-4.08h.03ZM107.86,26.53c-.83-.15-1.81-.23-3.01-.23-1.59,0-2.41.53-2.41,1.51s.68,1.51,1.96,1.51c1.36,0,2.49-.37,3.4-1.05v-1.73h.08-.01ZM114.42,31.87v-13.05h2.56l.37,1.67c1.13-1.13,2.33-1.67,3.63-1.67v2.64c-1.21,0-2.33.53-3.32,1.67v8.76h-3.24,0ZM123.02,16.71h2.41l.53,2.11h3.01v2.64h-2.64v6.04c0,1.21.53,1.81,1.59,1.81h1.05v2.64h-2.72c-2.19,0-3.32-1.21-3.32-3.55v-11.69h.08Z"/></g></svg>