<?xml version="1.0" encoding="UTF-8"?><svg id="LOGO" xmlns="http://www.w3.org/2000/svg" viewBox="0 0 1444.69 324.84"><defs><style>.cls-1{fill:#f64348;}.cls-2{fill:#e5e5e5;font-family:Poppins-Regular, Poppins;font-size:200px;letter-spacing:.05em;}</style></defs><path class="cls-1" d="M1444.54,27.66c-1.51-15.5-14.62-27.66-30.51-27.66h-.63c-5.87,0-11.37,1.66-16.03,4.54-7.96,4.91-13.52,13.35-14.48,23.12-.1,.99-.15,1.99-.15,3v41.3h-48.16v-6.52c0-16.96-13.8-30.76-30.76-30.76h-.42c-16.96,0-30.76,13.8-30.76,30.76v58.67c0,.39,0,.77,.01,1.16,.62,47.08,38.67,85.47,85.36,85.82h.65c20.86,0,40-7.46,54.91-19.86,18.95-15.75,31.05-39.47,31.11-65.96,0-.07,0-.14,0-.21V30.66c0-1.01-.05-2.01-.15-3Zm-20.03,97.41c0,.07,0,.14,0,.21-.04,13.33-4.06,25.73-10.94,36.09-11.8,17.79-32.01,29.55-54.91,29.55h-.5c-35.65-.27-64.72-29.6-65.33-65.64,0-.39-.01-.77-.01-1.16v-58.67c0-5.84,4.75-10.59,10.59-10.59h.42c5.84,0,10.59,4.75,10.59,10.59v50.73c0,4.01,2.34,7.47,5.72,9.1,1.32,.63,2.8,.99,4.36,.99s3.04-.36,4.36-.99c3.39-1.63,5.72-5.09,5.72-9.1v-24.03h12.33v24.03c0,4.01,2.34,7.47,5.72,9.1,1.32,.63,2.8,.99,4.36,.99s3.04-.36,4.36-.99c3.39-1.63,5.72-5.09,5.72-9.1v-24.03h15.65v24.03c0,4.01,2.34,7.47,5.72,9.1,1.32,.63,2.8,.99,4.36,.99s3.04-.36,4.36-.99c3.39-1.63,5.72-5.09,5.72-9.1V30.66c0-1.04,.16-2.05,.44-3,1.26-4.2,5.09-7.3,9.65-7.47,.13,0,.26,0,.39,0h.63c4.74,0,8.75,3.16,10.04,7.48,.28,.95,.44,1.96,.44,3V125.06Z"/><text class="cls-2" transform="translate(0 210.44)"><tspan x="0" y="0">onebitcode</tspan></text></svg>