<?xml version="1.0" encoding="UTF-8"?><svg id="Camada_1" xmlns="http://www.w3.org/2000/svg" xmlns:xlink="http://www.w3.org/1999/xlink" viewBox="0 0 82.3 30"><defs><style>.cls-1{clip-path:url(#clippath);}.cls-2{fill:none;}.cls-2,.cls-3{stroke-width:0px;}.cls-3{fill:#fff;}</style><clipPath id="clippath"><rect class="cls-2" x="-30.35" width="143" height="30"/></clipPath></defs><g class="cls-1"><path class="cls-3" d="M53.77,21.34V5.61c0-5.38,5.6-6.51,9.62-4.98v3c-2.77-1.13-5.89-.85-5.89,2.6h4.47v3h-4.47v12.06l-3.74.06Z"/><path class="cls-3" d="M71.6,3.91h2.77l.57,2.32h3.45v3h-3.06v6.96c0,1.41.62,2.09,1.81,2.09h1.92v3h-3.74c-2.49,0-3.79-1.36-3.79-4.02V3.91h.06Z"/><rect class="cls-3" x="64.92" y="6.23" width="3.79" height="15.06"/><rect class="cls-3" x="64.92" y=".79" width="3.79" height="3.11"/><path class="cls-3" d="M82.3,21.28c-3.34,5.26-9.17,8.72-15.85,8.72s-12.51-3.45-15.85-8.72c3.91,3.62,9.57,5.83,15.85,5.83,6.28.06,11.94-2.21,15.85-5.83"/><path class="cls-3" d="M.45,17.83v-2.04c1.08.45,2.38.68,3.79.68,1.08,0,1.58-.34,1.58-1.02,0-.62-.34-.96-1.08-.96h-1.75c-1.98,0-3-1.02-3-3s1.47-3.06,4.36-3.06c1.25,0,2.38.17,3.51.57v2.04c-1.08-.45-2.26-.68-3.57-.68s-1.98.34-1.98,1.02c0,.62.4.96,1.19.96h1.58c2.15,0,3.28,1.02,3.28,3s-1.41,3.06-4.19,3.06c-1.41,0-2.6-.23-3.74-.57M10.02,18.28v-9.79h1.92l.28,1.25c1.13-.85,2.26-1.25,3.34-1.25,1.25,0,2.09.45,2.6,1.36,1.25-.91,2.43-1.36,3.51-1.36,2.09,0,3.11,1.25,3.11,3.74v6.06h-2.49v-6.17c0-1.08-.45-1.64-1.36-1.64-.74,0-1.53.4-2.32,1.25v6.57h-2.49v-6.17c0-1.13-.45-1.64-1.36-1.64-.79,0-1.58.4-2.32,1.25v6.57s-2.43,0-2.43,0ZM26.66,15.23c0-2.04,1.41-3,4.24-3,.85,0,1.64.06,2.26.17v-.62c0-.85-.85-1.3-2.55-1.3-1.08,0-2.15.17-3.17.45v-1.98c1.08-.28,2.15-.45,3.17-.45,3.34,0,5.04,1.08,5.04,3.23v6.57h-1.25l-1.08-.68c-.85.45-1.75.68-2.72.68-2.66,0-3.96-1.02-3.96-3.06ZM33.17,14.27c-.62-.11-1.36-.17-2.26-.17-1.19,0-1.81.4-1.81,1.13s.51,1.13,1.47,1.13c1.02,0,1.87-.28,2.55-.79v-1.3h.06ZM38.09,18.28v-9.79h1.92l.28,1.25c.85-.85,1.75-1.25,2.72-1.25v1.98c-.91,0-1.75.4-2.49,1.25v6.57h-2.43ZM44.54,6.91h1.81l.4,1.58h2.26v1.98h-1.98v4.53c0,.91.4,1.36,1.19,1.36h.79v1.98h-2.04c-1.64,0-2.49-.91-2.49-2.66V6.91h.06Z"/></g></svg>