<?xml version="1.0" encoding="UTF-8"?>
<svg id="Camada_1" data-name="Camada 1" xmlns="http://www.w3.org/2000/svg" version="1.1" viewBox="0 0 140.4 20.3">
  <defs>
    <style>
      .cls-1 {
        fill: #0f9d58;
      }

      .cls-1, .cls-2, .cls-3, .cls-4, .cls-5 {
        stroke-width: 0px;
      }

      .cls-2 {
        fill: #4285f4;
      }

      .cls-3 {
        fill: #ea4335;
      }

      .cls-4 {
        fill: #fbbc04;
      }

      .cls-5 {
        fill: #656c73;
      }
    </style>
  </defs>
  <path class="cls-3" d="M10.2,10.3l6.8-4c1.6-.9,2.1-3,1.2-4.6C17.3,0,15.2-.5,13.6.4L1.7,7.3l8.4,3Z"/>
  <path class="cls-2" d="M15.2,20.3c1.2,0,2.3-.6,2.9-1.7.9-1.6.4-3.7-1.2-4.6L5.1,7.2c-1.6-.9-3.7-.4-4.6,1.2-.9,1.6-.4,3.7,1.2,4.6l11.8,6.8c.6.4,1.2.5,1.8.5Z"/>
  <path class="cls-4" d="M27,20.3c.6,0,1.1-.2,1.7-.5l11.8-6.8-8.2-3.1-6.9,4c-1.6.9-2.1,3-1.2,4.6.6,1.2,1.8,1.8,2.9,1.8Z"/>
  <path class="cls-1" d="M38.8,13.6c1.2,0,2.3-.6,2.9-1.7.9-1.6.4-3.7-1.2-4.6L28.7.4c-1.6-.9-3.7-.4-4.6,1.2-.9,1.6-.4,3.7,1.2,4.6l11.8,6.8c.6.3,1.2.5,1.8.5Z"/>
  <g>
    <path class="cls-5" d="M51.4,16.9c-1.2-.7-2.1-1.7-2.9-2.9-.7-1.2-1-2.6-1-4.1s.4-2.9,1-4.1c.7-1.2,1.7-2.2,2.9-2.9,1.2-.7,2.5-1,4-1s2.2.2,3.1.6c1,.4,1.8.9,2.4,1.7l-1.3,1.3c-.5-.6-1.1-1-1.8-1.4-.7-.3-1.6-.5-2.4-.5s-2,.3-3,.7c-.9.6-1.7,1.3-2.2,2.2-.6.9-.8,2-.8,3.2s.3,2.3.8,3.2c.6.9,1.3,1.7,2.2,2.2.9.6,1.9.7,3,.7s1.8-.2,2.6-.5c.6-.3,1.3-.7,1.8-1.3.4-.4.6-.9.9-1.5.2-.6.4-1.2.4-1.8h-5.6v-1.7h7.3c0,.4,0,.7,0,1.1,0,.9-.2,1.8-.5,2.8-.3.9-.7,1.7-1.4,2.3-1.5,1.5-3.3,2.3-5.6,2.3-1.4,0-2.7-.2-3.9-.9Z"/>
    <path class="cls-5" d="M64,2.4h4.6c1.6,0,3,.4,4.1.9,1.2.6,2,1.6,2.7,2.7.6,1.1.9,2.5.9,4s-.3,2.8-.9,4c-.6,1.1-1.5,2-2.7,2.7-1.2.6-2.5.9-4.1.9h-4.6V2.4ZM68.6,15.9c1.8,0,3.2-.6,4.3-1.6,1-1,1.6-2.5,1.6-4.3s-.6-3.3-1.6-4.3c-1-1-2.5-1.6-4.3-1.6h-2.8v11.8h2.8Z"/>
    <path class="cls-5" d="M81.4,16.9c-1.2-.7-2.1-1.7-2.9-2.9-.7-1.2-1-2.6-1-4.1s.4-2.9,1-4.1c.7-1.2,1.7-2.2,2.9-2.9,1.2-.7,2.5-1,4-1s2.2.2,3.1.6c1,.4,1.8.9,2.4,1.7l-1.3,1.3c-.5-.6-1.1-1-1.8-1.4-.7-.3-1.6-.5-2.4-.5s-2,.3-3,.7c-.9.6-1.7,1.3-2.2,2.2-.6.9-.8,2-.8,3.2s.3,2.3.8,3.2c.6.9,1.3,1.7,2.2,2.2.9.6,1.9.7,3,.7s1.8-.2,2.6-.5c.6-.3,1.3-.7,1.8-1.3.4-.4.6-.9.9-1.5.2-.6.4-1.2.4-1.8h-5.6v-1.7h7.3c0,.4,0,.7,0,1.1,0,.9-.2,1.8-.5,2.8-.3.9-.7,1.7-1.4,2.3-1.5,1.5-3.3,2.3-5.6,2.3-1.3,0-2.7-.2-3.9-.9Z"/>
    <g>
      <path class="cls-5" d="M103.6,17.3c-.8-.4-1.4-.9-1.9-1.5-.5-.6-.7-1.4-.7-2.2h2.2c0,.7.4,1.3.9,1.8.5.5,1.3.7,2.3.7s1.7-.2,2.3-.7c.6-.5.8-1.1.8-1.9s-.2-1.1-.5-1.4c-.3-.4-.7-.7-1.2-.8-.5-.2-1.1-.4-2-.6-1-.3-1.8-.5-2.5-.8s-1.1-.7-1.6-1.3c-.4-.6-.7-1.3-.7-2.3s.2-1.6.6-2.2c.4-.7,1-1.2,1.8-1.5s1.7-.5,2.7-.5c1.5,0,2.6.4,3.6,1.1.9.7,1.4,1.7,1.6,2.9h-2.2c0-.6-.4-1.1-.9-1.6-.5-.5-1.3-.7-2.2-.7s-1.5.2-2.1.7c-.5.4-.8,1-.8,1.8s.2,1,.5,1.4c.3.4.7.6,1.2.8.5.2,1.1.4,2,.6,1,.3,1.8.6,2.5.8.6.3,1.2.7,1.6,1.3.4.6.7,1.3.7,2.3s-.2,1.5-.6,2.1-1,1.2-1.8,1.6c-.8.4-1.7.6-2.8.6s-1.9-.2-2.7-.5Z"/>
      <path class="cls-5" d="M122.3,2.2v11.4c0,1.3-.4,2.3-1.2,3.1-.8.8-1.8,1.1-3.1,1.1s-2.3-.4-3.1-1.2c-.8-.8-1.2-1.8-1.2-3.2h2c0,.8.2,1.4.6,1.8.4.5.9.7,1.7.7s1.3-.2,1.7-.7c.4-.5.6-1,.6-1.7V2.2h2Z"/>
      <path class="cls-5" d="M126.5,5.9c.7-1.2,1.6-2.1,2.8-2.8,1.2-.7,2.5-1,3.9-1s3.2.4,4.4,1.2c1.3.8,2.2,2,2.8,3.5h-2.4c-.4-.9-1-1.6-1.9-2.2-.8-.5-1.8-.8-2.9-.8s-2.1.3-2.9.8c-.9.5-1.5,1.2-2,2.1-.5.9-.7,2-.7,3.3s.2,2.3.7,3.2,1.2,1.6,2,2.1c.9.5,1.8.8,2.9.8s2.1-.2,2.9-.7c.8-.5,1.4-1.2,1.9-2.1h2.4c-.6,1.5-1.5,2.6-2.8,3.4-1.3.8-2.7,1.2-4.4,1.2s-2.7-.3-3.9-1c-1.2-.7-2.1-1.6-2.8-2.8-.7-1.2-1-2.6-1-4.1s.3-2.9,1-4.1Z"/>
    </g>
  </g>
</svg>