<?xml version="1.0" encoding="UTF-8"?>
<svg id="Camada_1" data-name="Camada 1" xmlns="http://www.w3.org/2000/svg" version="1.1" viewBox="0 0 70.9 12.6">
  <defs>
    <style>
      .cls-1 {
        fill: #0f9d58;
      }

      .cls-1, .cls-2, .cls-3, .cls-4, .cls-5 {
        stroke-width: 0px;
      }

      .cls-2 {
        fill: #4285f4;
      }

      .cls-3 {
        fill: #ea4335;
      }

      .cls-4 {
        fill: #fbbc04;
      }

      .cls-5 {
        fill: #656c73;
      }
    </style>
  </defs>
  <path class="cls-3" d="M5.9,6.4l3.4-2c.8-.5,1-1.5.6-2.3-.5-.8-1.5-1-2.3-.6L1.8,4.9l4.1,1.5Z"/>
  <path class="cls-2" d="M8.4,11.3c.6,0,1.1-.3,1.4-.8.5-.8.2-1.8-.6-2.3l-5.8-3.4c-.8-.5-1.8-.2-2.3.6-.5.8-.2,1.8.6,2.3l5.8,3.4c.3.2.6.2.9.2Z"/>
  <path class="cls-4" d="M14.2,11.3c.3,0,.5,0,.8-.2l5.8-3.4-4-1.5-3.4,2c-.8.5-1,1.5-.6,2.3.3.6.9.9,1.4.9Z"/>
  <path class="cls-1" d="M20,8c.6,0,1.1-.3,1.4-.8.5-.8.2-1.8-.6-2.3l-5.8-3.4c-.8-.5-1.8-.2-2.3.6-.5.8-.2,1.8.6,2.3l5.8,3.4c.3.1.6.2.9.2Z"/>
  <path class="cls-5" d="M31.7,5.9c0,.2,0,.4,0,.5,0,.5,0,.9-.2,1.4-.1.5-.4.8-.7,1.1-.7.7-1.6,1.1-2.8,1.1-.7,0-1.3,0-1.9-.5-.6-.4-1-.8-1.4-1.4s-.5-1.3-.5-2,.2-1.4.5-2c.4-.6.8-1.1,1.4-1.4.6-.4,1.2-.5,2-.5s1.1,0,1.5.3c.5.2.9.5,1.2.8l-.6.6c-.2-.3-.5-.5-.9-.7-.4-.1-.8-.2-1.2-.2s-1,.1-1.5.4c-.5.3-.8.6-1.1,1.1-.3.5-.4,1-.4,1.6s.1,1.1.4,1.6c.3.5.6.8,1.1,1.1.5.3,1,.4,1.5.4s.9,0,1.3-.2c.3-.1.6-.4.9-.6.2-.2.3-.5.5-.7,0-.3.2-.6.2-.9h-2.8v-.8h3.6ZM38,4.3c.3.5.5,1.2.5,2s-.1,1.4-.5,2c-.3.5-.7,1-1.3,1.3-.6.3-1.2.5-2,.5h-2.3V2.5h2.3c.8,0,1.5.2,2,.5.6.3,1,.8,1.3,1.3ZM37.5,6.2c0-.9-.3-1.6-.8-2.1-.5-.5-1.2-.8-2.1-.8h-1.4v5.8h1.4c.9,0,1.6-.3,2.1-.8.5-.5.8-1.2.8-2.1ZM42.9,5.9v.8h2.8c0,.3,0,.6-.2.9-.1.3-.3.5-.5.7-.2.3-.5.5-.9.6-.4.1-.8.2-1.3.2s-1,0-1.5-.4c-.5-.3-.8-.6-1.1-1.1-.3-.5-.4-1-.4-1.6s.1-1.1.4-1.6c.3-.5.6-.8,1.1-1.1.5-.2.9-.4,1.5-.4s.8,0,1.2.2c.4.2.7.4.9.7l.6-.6c-.3-.4-.7-.6-1.2-.8-.5-.2-1-.3-1.5-.3s-1.4.1-2,.5c-.6.3-1,.8-1.4,1.4-.3.6-.5,1.3-.5,2s.1,1.4.5,2,.8,1,1.4,1.4c.6.4,1.3.5,1.9.5,1.1,0,2-.4,2.8-1.1.3-.3.5-.7.7-1.1s.2-.9.2-1.4,0-.4,0-.5h-3.6ZM54.6,6.2c-.3-.1-.7-.3-1.2-.4-.4-.1-.7-.2-1-.3-.2,0-.4-.2-.6-.4-.2-.2-.2-.4-.2-.7s.1-.7.4-.9c.3-.2.6-.3,1-.3s.8.1,1.1.3c.3.2.4.5.5.8h1.1c0-.6-.3-1.1-.8-1.4-.5-.4-1-.5-1.8-.5s-.9,0-1.3.3c-.4.2-.7.4-.9.7-.2.3-.3.7-.3,1.1s.1.9.3,1.1c.2.3.5.5.8.6.3.1.7.3,1.2.4.4.1.7.2,1,.3.2,0,.4.2.6.4.2.2.2.4.2.7s-.1.7-.4.9c-.3.2-.6.4-1.1.4s-.9-.1-1.1-.4c-.3-.2-.4-.5-.4-.9h-1.1c0,.4.1.8.3,1.1.2.3.5.6.9.7.4.2.8.3,1.3.3s1-.1,1.4-.3c.4-.2.7-.5.9-.8s.3-.7.3-1-.1-.9-.3-1.1c-.2-.3-.5-.5-.8-.6ZM60,8c0,.3,0,.6-.3.8-.2.2-.5.3-.8.3s-.6-.1-.8-.3c-.2-.2-.3-.5-.3-.9h-1c0,.7.2,1.2.6,1.6.4.4.9.6,1.5.6s1.1-.2,1.5-.6c.4-.4.6-.9.6-1.5V2.4h-1v5.6ZM67.9,8.9c-.4.2-.9.4-1.4.4s-1-.1-1.4-.4c-.4-.2-.8-.6-1-1.1s-.4-1-.4-1.6.1-1.1.4-1.6c.2-.5.6-.8,1-1.1.4-.2.9-.4,1.4-.4s1,.1,1.4.4c.4.2.7.6.9,1.1h1.2c-.3-.7-.7-1.3-1.4-1.7-.6-.4-1.3-.6-2.2-.6s-1.3.2-1.9.5c-.6.3-1,.8-1.4,1.4-.3.6-.5,1.3-.5,2s.2,1.4.5,2c.3.6.8,1.1,1.4,1.4.6.3,1.2.5,1.9.5s1.6-.2,2.2-.6c.6-.4,1.1-1,1.4-1.7h-1.2c-.2.5-.5.8-.9,1.1Z"/>
</svg>