<?xml version="1.0" encoding="UTF-8"?>
<svg id="Camada_1" data-name="Camada 1" xmlns="http://www.w3.org/2000/svg" xmlns:xlink="http://www.w3.org/1999/xlink" version="1.1" viewBox="0 0 140 30">
  <defs>
    <style>
      .cls-1 {
        clip-path: url(#clippath);
      }

      .cls-2 {
        fill: none;
      }

      .cls-2, .cls-3, .cls-4 {
        stroke-width: 0px;
      }

      .cls-5 {
        clip-path: url(#clippath-1);
      }

      .cls-3, .cls-4 {
        fill: #fff;
      }

      .cls-6, .cls-4 {
        display: none;
      }
    </style>
    <clipPath id="clippath">
      <rect class="cls-2" y="1.8" width="140" height="24.2"/>
    </clipPath>
    <clipPath id="clippath-1">
      <rect class="cls-2" x="1.3" y="3.4" width="137.4" height="21"/>
    </clipPath>
  </defs>
  <g id="Inamara_Arruda" data-name="Inamara Arruda">
    <g class="cls-1">
      <g>
        <g class="cls-6">
          <path class="cls-3" d="M80.2,19V6.3c0-4.3,4.5-5.3,7.8-4v2.4c-2.2-.9-4.8-.7-4.8,2.1h3.6v2.4h-3.6v9.7h-3Z"/>
          <path class="cls-3" d="M94.6,4.9h2.2l.5,1.9h2.8v2.4h-2.5v5.6c0,1.1.5,1.7,1.5,1.7h1.6v2.4h-3c-2,0-3.1-1.1-3.1-3.2V4.9h0Z"/>
          <rect class="cls-3" x="89.2" y="6.8" width="3.1" height="12.2"/>
          <rect class="cls-3" x="89.2" y="2.4" width="3.1" height="2.5"/>
          <path class="cls-3" d="M103.3,19c-2.7,4.3-7.4,7-12.8,7s-10.1-2.8-12.8-7c3.2,2.9,7.7,4.7,12.8,4.7,5.1,0,9.7-1.8,12.8-4.7"/>
          <path class="cls-3" d="M37.1,16.2v-1.6c.9.4,1.9.5,3.1.5s1.3-.3,1.3-.8-.3-.8-.9-.8h-1.4c-1.6,0-2.4-.8-2.4-2.4s1.2-2.5,3.5-2.5,1.9.1,2.8.5v1.6c-.9-.4-1.8-.5-2.9-.5s-1.6.3-1.6.8.3.8,1,.8h1.3c1.7,0,2.7.8,2.7,2.4s-1.1,2.5-3.4,2.5-2.1-.2-3-.5M44.8,16.5v-7.9h1.6l.2,1c.9-.7,1.8-1,2.7-1s1.7.4,2.1,1.1c1-.7,2-1.1,2.8-1.1,1.7,0,2.5,1,2.5,3v4.9h-2v-5c0-.9-.4-1.3-1.1-1.3s-1.2.3-1.9,1v5.3h-2v-5c0-.9-.4-1.3-1.1-1.3s-1.3.3-1.9,1v5.3s-2,0-2,0ZM58.3,14.1c0-1.6,1.1-2.4,3.4-2.4s1.3,0,1.8.1v-.5c0-.7-.7-1.1-2.1-1.1s-1.7.1-2.6.4v-1.6c.9-.2,1.7-.4,2.6-.4,2.7,0,4.1.9,4.1,2.6v5.3h-1l-.9-.5c-.7.4-1.4.5-2.2.5-2.2,0-3.2-.8-3.2-2.5ZM63.5,13.3c-.5,0-1.1-.1-1.8-.1s-1.5.3-1.5.9.4.9,1.2.9,1.5-.2,2.1-.6v-1.1h0ZM67.5,16.5v-7.9h1.6l.2,1c.7-.7,1.4-1,2.2-1v1.6c-.7,0-1.4.3-2,1v5.3h-2ZM72.7,7.3h1.5l.3,1.3h1.8v1.6h-1.6v3.7c0,.7.3,1.1,1,1.1h.6v1.6h-1.6c-1.3,0-2-.7-2-2.2v-7.1h0Z"/>
        </g>
        <g class="cls-5">
          <image width="544" height="180" transform="translate(1.3 -7.7) scale(.3)" xlink:href="../../../../../../../logos parceiros/inamaraarruda_logo-pb.png"/>
        </g>
        <path class="cls-4" d="M16.2,2.9c-.1.9-.3,1.5-.7,3.6,0,.5-.2,1.1-.2,1.5,0,.6-.2,1.3-.6,3.2-.3,1.7-.5,2.6-.6,3.2,0,.4-.2,1-.2,1.5,0,.5-.2,1.2-.3,1.8,0,.5-.2,1.3-.3,1.8s-.2,1.1-.2,1.5c-.1.9-.4,2.1-.6,3.2-.1.5-.2,1-.1,1.2v.3h2.1c2.3,0,2.3,0,2.5-1.1.1-.9.4-2.8.7-3.9.1-.5.2-1.1.2-1.2s0-.8.2-1.3c.1-.5.3-1.3.3-1.8,0-.4.2-1.2.3-1.7,0-.5.2-1,.3-1.1.2-.2.5-.2.5,0s0,.3.2.5c.2.4.4,1.1.8,2.1.1.3.3.7.4.9.2.4.4,1.1.8,2.1.1.3.3.7.4.9,0,.2.3.6.4.9.1.3.4,1,.6,1.6.2.6.5,1.3.6,1.6.1.3.3.7.4.9l.2.4h1.4c1.4.1,1.5.1,1.8-.2.2-.2.3-.4.3-.5s0-.4.2-.7c.4-.8.5-1.2.8-1.9.1-.3.3-.8.4-1,0-.2.3-.6.4-1,.1-.3.3-.8.4-1,0-.2.3-.6.4-1,.1-.3.3-.8.4-1,.1-.2.4-.9.6-1.4.2-.6.5-1.2.6-1.4,0-.2.3-.6.4-.9.4-.9.9-.6.9.4s0,1,.2,1.6c.1.6.3,1.7.4,2.4.4,2.6.6,3.8.7,4.5,0,.4.2,1.2.3,1.7.2,1.6-.1,1.5,3.6,1.6,3.4,0,5.9,0,6.3-.2.1,0,.2-.2.2-.3s0-.3.2-.5c.1-.2.3-.6.4-.8.3-.7.6-1.5.7-1.7,0-.1.4-1,.8-1.9.4-.9.8-1.8.8-1.9.1-.2.4-.9.7-1.6.1-.2.3-.6.4-.9.1-.3.3-.7.4-1,.1-.2.2-.5.3-.7,0-.1.3-.8.6-1.5.6-1.4.8-1.7,1-1.5,0,0,.4.7.7,1.4.3.7.7,1.3.7,1.4,0,.1.2.3.2.4,0,.1.1.3.2.4,0,.1.7,1.3,1.4,2.7,1.1,2.1,1.2,2.5,1.1,2.7-.1.2-.6.2-3.1.2s-3,0-3.1,0c-.2,0-.5.6-1.5,2.9-.2.5-.6,1.2-.8,1.6-.2.4-.4.8-.3.9.1.2,16.4.2,16.5,0,0-.1,0-.4-.6-1.7-.2-.5-.5-1-.6-1.3-.2-.6-.5-1.1-1-2.1-.2-.5-.4-.9-.4-.9s-.2-.5-.4-.9c-.2-.5-.5-1.1-.6-1.3,0-.2-.4-.8-.6-1.3-.2-.5-.4-.9-.4-.9s-.2-.5-.4-.9c-.5-1.2-.9-2-1.4-3.2-.3-.7-.9-1.9-1.1-2.5-.3-.6-1.2-2.6-1.6-3.5-.2-.4-.3-.7-1-2.2l-.4-.9h-1.6c-1,0-1.6,0-1.6.1s-.1.5-.3.9c-.2.4-.4.9-.5,1.2,0,.2-.3.6-.4.8-.1.2-.4.8-.6,1.3-.2.5-.4.9-.4,1s-.2.4-.3.8c-.4.9-.8,1.8-1,2.3,0,.2-.4.8-.6,1.3-.2.5-.4.9-.4.9s-.2.5-.4.9c-.6,1.3-.8,1.8-1,2.2,0,.2-.4.8-.6,1.3-.2.5-.4.9-.4.9s-.2.5-.4.9c-.5,1-.7,1.5-1,2.1,0,.2-.3.7-.4,1-.8,1.8-1.3,3.1-1.3,3.2s0,.2-.2.2c-.2,0-.6-1.2-.6-1.8s0-.7-.2-1.1c-.2-.9-.5-2.2-.5-2.8,0-.2-.1-.8-.2-1.4-.4-2-.6-3.1-.8-4.1-.1-.5-.3-1.5-.4-2.1-.1-.6-.3-1.5-.4-2.1-.1-.6-.3-1.5-.4-2,0-.5-.2-1.3-.3-1.8,0-.4-.2-1.1-.3-1.6,0-.4-.2-.9-.2-1.2,0-.2-.1-.6-.1-.9v-.6h-3.7v.5c-.2.3-.4.9-.6,1.3-.2.4-.3.9-.4,1.1,0,.2-.2.7-.4,1.1-.2.4-.3.9-.4,1.1,0,.2-.2.7-.4,1.1-.2.4-.3.9-.4,1.1,0,.2-.3,1-.6,1.7-.8,2.3-1.2,3.5-1.3,3.8,0,.1-.1.4-.2.7-.1.2-.2.5-.2.5,0,.2-.5,1.3-.6,1.3s-.5-.7-.6-1.1c0-.1-.2-.6-.4-1-.2-.4-.3-.9-.4-1,0-.2-.2-.6-.4-1-.2-.4-.3-.9-.4-1.1,0-.2-.2-.5-.2-.6,0,0-.2-.3-.2-.5,0-.2-.2-.6-.4-1-.2-.4-.3-.9-.4-1,0-.2-.2-.6-.4-1-.2-.4-.3-.9-.4-1.2,0-.2-.2-.5-.2-.6,0,0-.1-.3-.2-.5,0-.2-.2-.6-.3-1-.2-.4-.4-.9-.5-1.2-.1-.3-.2-.7-.3-.9v-.4h-3.6l-.2.9ZM113.6,2.9c-.2.5-.5,1.3-.8,1.8-.2.5-.5,1-.6,1.2-.3.7-.6,1.3-.8,1.8-.1.3-.2.6-.3.7,0,.1-.3.8-.6,1.5-.3.7-.7,1.6-.9,2-.2.4-.4.9-.5,1.1,0,.2-.3.6-.4.9-.1.3-.2.6-.3.7,0,.1-.4,1-.8,1.9-.4.9-.8,1.8-.8,1.9,0,.1-.2.4-.3.7-.3.8-.6,1.4-.8,1.8-.1.2-.3.8-.5,1.1-.2.4-.5,1.2-.8,1.9-.3.6-.5,1.2-.6,1.3-.3.4,0,.4,2.4.4s2.8,0,2.8-.5.1-.4.2-.6c.3-.6.3-.7,1.1-2.6.4-1,.8-1.8.9-1.9,0,0,.1-.2.1-.3s.2-.6.4-1.1c.4-.8.5-1.1,1-2.2.1-.2.3-.6.4-.9.5-1.1.6-1.4.7-1.6,0-.1.3-.8.6-1.5.5-1.2.9-1.8,1-1.7,0,0,1.1,2,2.3,4.4,1.8,3.5,2.2,4.4,2.1,4.6-.1.2-.5.2-3.2.3h-3.1s-.3.7-.3.7c-.5,1.1-1.4,3.1-1.8,3.9-.2.4-.3.8-.3.8,0,0,3.8,0,8.5,0,8.3,0,8.4,0,8.4-.3s0-.2-.1-.2c0,0-.2,0-.3-.2-.1-.3-1.3-2.7-1.3-2.8s-.2-.4-.4-.9c-.9-1.9-1.2-2.6-1.4-3,0-.2-.4-.8-.6-1.3-.5-1.2-.8-1.8-1.2-2.7-.5-1.2-.7-1.5-1.1-2.5-.2-.5-.5-1.1-.6-1.3,0-.2-.4-.8-.6-1.3-.5-1.1-.8-1.7-1.2-2.7-.2-.4-.5-1-.6-1.3-.1-.3-.4-.9-.6-1.3-.2-.4-.5-1-.6-1.3-.1-.3-.2-.6-.2-.7,0-.1-.4-.2-1.5-.2h-1.5l-.4.9ZM64.8,2.4c-.1.2-.1,23.2,0,23.3,0,0,3.8,0,8.4,0h8.3v-5.4h-6.1c-4.7,0-6.1-.1-6.2-.2,0,0-.1-.9-.1-1.8s0-1.7.2-1.8c.1,0,1.9-.2,5.8-.2h5.6v-5h-5.6c-5.4-.1-5.6-.1-5.8-.4-.1-.2-.2-.6-.2-1.6s0-1.4.2-1.6c.2-.2.8-.2,5.3-.2s5.4,0,5.4-.7,0-.5.2-.9c.1-.3.3-1,.4-1.4.1-.5.3-1.1.4-1.4.1-.3.1-.6,0-.7-.2-.2-16.2-.3-16.3-.1ZM86.1,2.4c-.1.1-1,2.4-1.3,3.3,0,.1-.2.5-.3.7-.4.9-.8.9,6,.9h6.1c0,0,.6.4.6.4.8.4,1.7,1.4,2,2.1.6,1.3.7,1.9.6,3.6,0,2.5-.6,3.9-2,5.3-1.3,1.4-1.1,1.3-5.8,1.3-4.1,0-4.1,0-4.3-.2-.1-.2-.1-1.5-.1-4.3,0-2.2,0-4.1,0-4.2-.1-.2-3.5-.2-3.7,0-.1.1-.2,1.8-.2,6.9s0,6.9,0,7.1v.3h6.8c4.4,0,6.9,0,7.3-.1,2.8-.6,5.1-3.4,6.1-7.3.4-1.6.5-2.4.6-4.3,0-2-.1-3.7-.6-5.1-.1-.3-.2-.7-.2-.8s-.3-.8-.6-1.5c-.5-1.1-.8-1.5-1.5-2.2-.5-.5-1.1-1-1.5-1.2-1.6-.7-1.2-.7-7.8-.7-3.4,0-6.3,0-6.3,0Z"/>
      </g>
    </g>
  </g>
</svg>