<?xml version="1.0" encoding="UTF-8"?>
<svg id="Camada_1" data-name="Camada 1" xmlns="http://www.w3.org/2000/svg" version="1.1" viewBox="0 0 236.8 37">
  <defs>
    <style>
      .cls-1 {
        fill: #0f9d58;
      }

      .cls-1, .cls-2, .cls-3, .cls-4, .cls-5 {
        stroke-width: 0px;
      }

      .cls-2 {
        fill: #4285f4;
      }

      .cls-3 {
        fill: #ea4335;
      }

      .cls-4 {
        fill: #fbbc04;
      }

      .cls-5 {
        fill: #656c73;
      }
    </style>
  </defs>
  <path class="cls-3" d="M18.5,18.7l11.4-6.6c2.6-1.5,3.5-4.9,2-7.7-1.5-2.6-4.9-3.5-7.7-2L4.5,13.7l14,4.9Z"/>
  <path class="cls-2" d="M27,35.4c2,0,3.8-1.1,4.8-2.8,1.5-2.6.6-6.2-2-7.7L10,13.6c-2.6-1.5-6.2-.6-7.7,2-1.5,2.6-.6,6.2,2,7.7l19.7,11.4c1.1.6,2,.8,2.9.8Z"/>
  <path class="cls-4" d="M46.5,35.4c.9,0,1.8-.3,2.8-.8l19.7-11.4-13.7-5.1-11.5,6.6c-2.6,1.5-3.5,4.9-2,7.7,1.1,2,2.9,2.9,4.8,2.9Z"/>
  <path class="cls-1" d="M66.2,24.2c2,0,3.8-1.1,4.8-2.8,1.5-2.6.6-6.2-2-7.7L49.3,2.3c-2.6-1.5-6.2-.6-7.7,2-1.5,2.6-.6,6.2,2,7.7l19.7,11.4c.9.5,2,.8,2.9.8Z"/>
  <g>
    <path class="cls-5" d="M87,29.7c-2-1.2-3.5-2.8-4.8-4.8-1.2-2-1.7-4.3-1.7-6.8s.6-4.8,1.7-6.8c1.2-2,2.8-3.7,4.8-4.8,2-1.2,4.2-1.7,6.6-1.7s3.7.3,5.2.9c1.7.6,2.9,1.5,4,2.8l-2.2,2.2c-.8-.9-1.8-1.7-3.1-2.3-1.2-.5-2.6-.8-4-.8s-3.4.5-4.9,1.2c-1.5.9-2.8,2.2-3.7,3.7-.9,1.5-1.4,3.4-1.4,5.4s.5,3.8,1.4,5.4c.9,1.5,2.2,2.8,3.7,3.7,1.5.9,3.2,1.2,4.9,1.2s3.1-.3,4.3-.8c1.1-.5,2.2-1.2,2.9-2.2.6-.6,1.1-1.5,1.5-2.5.3-.9.6-2,.6-3.1h-9.4v-2.8h12.2c.2.6.2,1.2.2,1.8,0,1.5-.3,3.1-.8,4.6-.5,1.5-1.2,2.8-2.3,3.8-2.5,2.5-5.5,3.8-9.4,3.8-2.3.2-4.5-.3-6.5-1.5Z"/>
    <path class="cls-5" d="M108.1,5.6h7.7c2.6,0,4.9.6,6.8,1.5,2,1.1,3.4,2.6,4.5,4.5,1.1,1.8,1.5,4.2,1.5,6.6s-.5,4.6-1.5,6.6c-1.1,1.8-2.5,3.4-4.5,4.5-2,1.1-4.2,1.5-6.8,1.5h-7.7V5.6ZM115.8,28c2.9,0,5.4-.9,7.1-2.6,1.7-1.7,2.6-4.2,2.6-7.2s-.9-5.5-2.6-7.2c-1.7-1.7-4.2-2.6-7.1-2.6h-4.6v19.7h4.6Z"/>
    <path class="cls-5" d="M137.1,29.7c-2-1.2-3.5-2.8-4.8-4.8-1.2-2-1.7-4.3-1.7-6.8s.6-4.8,1.7-6.8c1.2-2,2.8-3.7,4.8-4.8,2-1.2,4.2-1.7,6.6-1.7s3.7.3,5.2.9c1.7.6,2.9,1.5,4,2.8l-2.2,2.2c-.8-.9-1.8-1.7-3.1-2.3-1.2-.5-2.6-.8-4-.8s-3.4.5-4.9,1.2c-1.5.9-2.8,2.2-3.7,3.7-.9,1.5-1.4,3.4-1.4,5.4s.5,3.8,1.4,5.4c.9,1.5,2.2,2.8,3.7,3.7,1.5.9,3.2,1.2,4.9,1.2s3.1-.3,4.3-.8c1.1-.5,2.2-1.2,2.9-2.2.6-.6,1.1-1.5,1.5-2.5.3-.9.6-2,.6-3.1h-9.4v-2.8h12.2c.2.6.2,1.2.2,1.8,0,1.5-.3,3.1-.8,4.6-.5,1.5-1.2,2.8-2.3,3.8-2.5,2.5-5.5,3.8-9.4,3.8-2.2.2-4.5-.3-6.5-1.5Z"/>
    <g>
      <path class="cls-5" d="M174,30.4c-1.3-.6-2.4-1.4-3.2-2.5-.8-1.1-1.2-2.3-1.2-3.7h3.6c.1,1.2.6,2.2,1.5,3,.9.8,2.1,1.2,3.8,1.2s2.9-.4,3.8-1.2c.9-.8,1.4-1.8,1.4-3.1s-.3-1.8-.8-2.4c-.5-.6-1.2-1.1-2-1.4-.8-.3-1.9-.7-3.3-1-1.7-.4-3.1-.9-4.1-1.3s-1.9-1.1-2.6-2.1c-.7-.9-1.1-2.2-1.1-3.8s.4-2.6,1.1-3.7c.7-1.1,1.7-1.9,3-2.5s2.8-.9,4.5-.9c2.4,0,4.4.6,5.9,1.8,1.5,1.2,2.4,2.8,2.6,4.8h-3.7c-.1-1-.6-1.9-1.6-2.6-.9-.8-2.1-1.1-3.6-1.1s-2.5.4-3.4,1.1c-.9.7-1.3,1.7-1.3,3s.3,1.7.8,2.3c.5.6,1.2,1,2,1.3.8.3,1.9.7,3.3,1.1,1.7.5,3.1.9,4.1,1.4,1,.5,1.9,1.2,2.7,2.1.7.9,1.1,2.2,1.1,3.9s-.3,2.4-1,3.5-1.7,2-3,2.7c-1.3.7-2.8,1-4.6,1s-3.2-.3-4.6-.9Z"/>
      <path class="cls-5" d="M205,5.3v19c0,2.1-.7,3.8-2,5.1-1.3,1.3-3,1.9-5.2,1.9s-3.9-.6-5.2-1.9c-1.3-1.3-2-3.1-2-5.3h3.4c0,1.3.4,2.3,1,3.1.6.8,1.6,1.2,2.8,1.2s2.2-.4,2.8-1.1c.6-.8.9-1.7.9-2.9V5.3h3.4Z"/>
      <path class="cls-5" d="M212.1,11.4c1.1-2,2.7-3.6,4.6-4.7,2-1.1,4.1-1.7,6.5-1.7s5.3.7,7.4,2c2.1,1.4,3.6,3.3,4.6,5.8h-4c-.7-1.6-1.7-2.7-3.1-3.6-1.3-.8-2.9-1.3-4.8-1.3s-3.4.4-4.8,1.3c-1.4.8-2.5,2-3.4,3.6-.8,1.5-1.2,3.3-1.2,5.4s.4,3.8,1.2,5.4,1.9,2.7,3.4,3.6c1.4.8,3,1.3,4.8,1.3s3.5-.4,4.8-1.2c1.3-.8,2.4-2,3.1-3.6h4c-1,2.5-2.5,4.4-4.6,5.7-2.1,1.3-4.5,2-7.4,2s-4.6-.6-6.5-1.7c-2-1.1-3.5-2.7-4.6-4.7-1.1-2-1.7-4.2-1.7-6.8s.6-4.8,1.7-6.8Z"/>
    </g>
  </g>
</svg>