<?xml version="1.0" encoding="UTF-8"?>
<svg id="Camada_1" data-name="Camada 1" xmlns="http://www.w3.org/2000/svg" xmlns:xlink="http://www.w3.org/1999/xlink" version="1.1" viewBox="0 0 75 30">
  <defs>
    <style>
      .cls-1 {
        clip-path: url(#clippath);
      }

      .cls-2 {
        fill: none;
      }

      .cls-2, .cls-3, .cls-4 {
        stroke-width: 0px;
      }

      .cls-5 {
        clip-path: url(#clippath-1);
      }

      .cls-6 {
        clip-path: url(#clippath-4);
      }

      .cls-7 {
        clip-path: url(#clippath-3);
      }

      .cls-8 {
        clip-path: url(#clippath-2);
      }

      .cls-9 {
        clip-path: url(#clippath-7);
      }

      .cls-10 {
        clip-path: url(#clippath-6);
      }

      .cls-11 {
        clip-path: url(#clippath-5);
      }

      .cls-12 {
        isolation: isolate;
      }

      .cls-3, .cls-4 {
        fill: #fff;
      }

      .cls-13, .cls-4 {
        display: none;
      }
    </style>
    <clipPath id="clippath">
      <rect class="cls-2" x="-808.5" y="2.9" width="140" height="24.2"/>
    </clipPath>
    <clipPath id="clippath-1">
      <rect class="cls-2" x="-807.2" y="4.5" width="137.4" height="21"/>
    </clipPath>
    <clipPath id="clippath-2">
      <rect class="cls-2" x="-596.8" y=".1" width="105.6" height="30"/>
    </clipPath>
    <clipPath id="clippath-3">
      <rect class="cls-2" x="-422" y="0" width="143" height="30"/>
    </clipPath>
    <clipPath id="clippath-4">
      <rect class="cls-2" x="-213.1" y="6" width="112.6" height="18"/>
    </clipPath>
    <clipPath id="clippath-5">
      <rect class="cls-2" x="-213.1" y="6" width="112.8" height="18"/>
    </clipPath>
    <clipPath id="clippath-6">
      <rect class="cls-2" x="-8.2" y="2" width="91.5" height="26"/>
    </clipPath>
    <clipPath id="clippath-7">
      <rect class="cls-2" x="5.1" y="2" width="64.8" height="26"/>
    </clipPath>
  </defs>
  <g id="Inamara_Arruda" data-name="Inamara Arruda">
    <g class="cls-1">
      <g>
        <g class="cls-13">
          <path class="cls-3" d="M-728.3,20.1V7.4c0-4.3,4.5-5.3,7.8-4v2.4c-2.2-.9-4.8-.7-4.8,2.1h3.6v2.4h-3.6v9.7h-3Z"/>
          <path class="cls-3" d="M-713.9,6h2.2l.5,1.9h2.8v2.4h-2.5v5.6c0,1.1.5,1.7,1.5,1.7h1.6v2.4h-3c-2,0-3.1-1.1-3.1-3.2V6h0Z"/>
          <rect class="cls-3" x="-719.3" y="7.9" width="3.1" height="12.2"/>
          <rect class="cls-3" x="-719.3" y="3.5" width="3.1" height="2.5"/>
          <path class="cls-3" d="M-705.2,20.1c-2.7,4.3-7.4,7-12.8,7s-10.1-2.8-12.8-7c3.2,2.9,7.7,4.7,12.8,4.7,5.1,0,9.7-1.8,12.8-4.7"/>
          <path class="cls-3" d="M-771.4,17.3v-1.6c.9.4,1.9.5,3.1.5s1.3-.3,1.3-.8-.3-.8-.9-.8h-1.4c-1.6,0-2.4-.8-2.4-2.4s1.2-2.5,3.5-2.5,1.9.1,2.8.5v1.6c-.9-.4-1.8-.5-2.9-.5s-1.6.3-1.6.8.3.8,1,.8h1.3c1.7,0,2.7.8,2.7,2.4s-1.1,2.5-3.4,2.5-2.1-.2-3-.5M-763.7,17.7v-7.9h1.6l.2,1c.9-.7,1.8-1,2.7-1s1.7.4,2.1,1.1c1-.7,2-1.1,2.8-1.1,1.7,0,2.5,1,2.5,3v4.9h-2v-5c0-.9-.4-1.3-1.1-1.3s-1.2.3-1.9,1v5.3h-2v-5c0-.9-.4-1.3-1.1-1.3s-1.3.3-1.9,1v5.3s-2,0-2,0ZM-750.2,15.2c0-1.6,1.1-2.4,3.4-2.4s1.3,0,1.8.1v-.5c0-.7-.7-1.1-2.1-1.1s-1.7.1-2.6.4v-1.6c.9-.2,1.7-.4,2.6-.4,2.7,0,4.1.9,4.1,2.6v5.3h-1l-.9-.5c-.7.4-1.4.5-2.2.5-2.2,0-3.2-.8-3.2-2.5ZM-745,14.4c-.5,0-1.1-.1-1.8-.1s-1.5.3-1.5.9.4.9,1.2.9,1.5-.2,2.1-.6v-1.1h0ZM-741,17.7v-7.9h1.6l.2,1c.7-.7,1.4-1,2.2-1v1.6c-.7,0-1.4.3-2,1v5.3h-2ZM-735.8,8.5h1.5l.3,1.3h1.8v1.6h-1.6v3.7c0,.7.3,1.1,1,1.1h.6v1.6h-1.6c-1.3,0-2-.7-2-2.2v-7.1h0Z"/>
        </g>
        <g class="cls-5">
          <image width="544" height="180" transform="translate(-807.2 -6.6) scale(.3)" xlink:href="../../../../../../../logos parceiros/inamaraarruda_logo-pb.png"/>
        </g>
        <path class="cls-4" d="M-792.3,4c-.1.9-.3,1.5-.7,3.6,0,.5-.2,1.1-.2,1.5,0,.6-.2,1.3-.6,3.2-.3,1.7-.5,2.6-.6,3.2,0,.4-.2,1-.2,1.5,0,.5-.2,1.2-.3,1.8,0,.5-.2,1.3-.3,1.8s-.2,1.1-.2,1.5c-.1.9-.4,2.1-.6,3.2-.1.5-.2,1-.1,1.2v.3h2.1c2.3,0,2.3,0,2.5-1.1.1-.9.4-2.8.7-3.9.1-.5.2-1.1.2-1.2s0-.8.2-1.3c.1-.5.3-1.3.3-1.8,0-.4.2-1.2.3-1.7,0-.5.2-1,.3-1.1.2-.2.5-.2.5,0s0,.3.2.5c.2.4.4,1.1.8,2.1.1.3.3.7.4.9.2.4.4,1.1.8,2.1.1.3.3.7.4.9,0,.2.3.6.4.9.1.3.4,1,.6,1.6.2.6.5,1.3.6,1.6.1.3.3.7.4.9l.2.4h1.4c1.4.1,1.5.1,1.8-.2.2-.2.3-.4.3-.5s0-.4.2-.7c.4-.8.5-1.2.8-1.9.1-.3.3-.8.4-1,0-.2.3-.6.4-1,.1-.3.3-.8.4-1,0-.2.3-.6.4-1,.1-.3.3-.8.4-1,.1-.2.4-.9.6-1.4.2-.6.5-1.2.6-1.4,0-.2.3-.6.4-.9.4-.9.9-.6.9.4s0,1,.2,1.6c.1.6.3,1.7.4,2.4.4,2.6.6,3.8.7,4.5,0,.4.2,1.2.3,1.7.2,1.6-.1,1.5,3.6,1.6,3.4,0,5.9,0,6.3-.2.1,0,.2-.2.2-.3s0-.3.2-.5c.1-.2.3-.6.4-.8.3-.7.6-1.5.7-1.7,0-.1.4-1,.8-1.9.4-.9.8-1.8.8-1.9.1-.2.4-.9.7-1.6.1-.2.3-.6.4-.9.1-.3.3-.7.4-1,.1-.2.2-.5.3-.7,0-.1.3-.8.6-1.5.6-1.4.8-1.7,1-1.5,0,0,.4.7.7,1.4.3.7.7,1.3.7,1.4,0,.1.2.3.2.4,0,.1.1.3.2.4,0,.1.7,1.3,1.4,2.7,1.1,2.1,1.2,2.5,1.1,2.7-.1.2-.6.2-3.1.2s-3,0-3.1,0c-.2,0-.5.6-1.5,2.9-.2.5-.6,1.2-.8,1.6-.2.4-.4.8-.3.9.1.2,16.4.2,16.5,0,0-.1,0-.4-.6-1.7-.2-.5-.5-1-.6-1.3-.2-.6-.5-1.1-1-2.1-.2-.5-.4-.9-.4-.9s-.2-.5-.4-.9c-.2-.5-.5-1.1-.6-1.3,0-.2-.4-.8-.6-1.3-.2-.5-.4-.9-.4-.9s-.2-.5-.4-.9c-.5-1.2-.9-2-1.4-3.2-.3-.7-.9-1.9-1.1-2.5-.3-.6-1.2-2.6-1.6-3.5-.2-.4-.3-.7-1-2.2l-.4-.9h-1.6c-1,0-1.6,0-1.6.1s-.1.5-.3.9c-.2.4-.4.9-.5,1.2,0,.2-.3.6-.4.8-.1.2-.4.8-.6,1.3-.2.5-.4.9-.4,1s-.2.4-.3.8c-.4.9-.8,1.8-1,2.3,0,.2-.4.8-.6,1.3-.2.5-.4.9-.4.9s-.2.5-.4.9c-.6,1.3-.8,1.8-1,2.2,0,.2-.4.8-.6,1.3-.2.5-.4.9-.4.9s-.2.5-.4.9c-.5,1-.7,1.5-1,2.1,0,.2-.3.7-.4,1-.8,1.8-1.3,3.1-1.3,3.2s0,.2-.2.2c-.2,0-.6-1.2-.6-1.8s0-.7-.2-1.1c-.2-.9-.5-2.2-.5-2.8,0-.2-.1-.8-.2-1.4-.4-2-.6-3.1-.8-4.1-.1-.5-.3-1.5-.4-2.1-.1-.6-.3-1.5-.4-2.1-.1-.6-.3-1.5-.4-2,0-.5-.2-1.3-.3-1.8,0-.4-.2-1.1-.3-1.6,0-.4-.2-.9-.2-1.2,0-.2-.1-.6-.1-.9v-.6h-3.7v.5c-.2.3-.4.9-.6,1.3-.2.4-.3.9-.4,1.1,0,.2-.2.7-.4,1.1-.2.4-.3.9-.4,1.1,0,.2-.2.7-.4,1.1-.2.4-.3.9-.4,1.1,0,.2-.3,1-.6,1.7-.8,2.3-1.2,3.5-1.3,3.8,0,.1-.1.4-.2.7-.1.2-.2.5-.2.5,0,.2-.5,1.3-.6,1.3s-.5-.7-.6-1.1c0-.1-.2-.6-.4-1-.2-.4-.3-.9-.4-1,0-.2-.2-.6-.4-1-.2-.4-.3-.9-.4-1.1,0-.2-.2-.5-.2-.6,0,0-.2-.3-.2-.5,0-.2-.2-.6-.4-1-.2-.4-.3-.9-.4-1,0-.2-.2-.6-.4-1-.2-.4-.3-.9-.4-1.2,0-.2-.2-.5-.2-.6,0,0-.1-.3-.2-.5,0-.2-.2-.6-.3-1-.2-.4-.4-.9-.5-1.2-.1-.3-.2-.7-.3-.9v-.4h-3.6l-.2.9ZM-694.9,4c-.2.5-.5,1.3-.8,1.8-.2.5-.5,1-.6,1.2-.3.7-.6,1.3-.8,1.8-.1.3-.2.6-.3.7,0,.1-.3.8-.6,1.5-.3.7-.7,1.6-.9,2-.2.4-.4.9-.5,1.1,0,.2-.3.6-.4.9-.1.3-.2.6-.3.7,0,.1-.4,1-.8,1.9-.4.9-.8,1.8-.8,1.9,0,.1-.2.4-.3.7-.3.8-.6,1.4-.8,1.8-.1.2-.3.8-.5,1.1-.2.4-.5,1.2-.8,1.9-.3.6-.5,1.2-.6,1.3-.3.4,0,.4,2.4.4s2.8,0,2.8-.5.1-.4.2-.6c.3-.6.3-.7,1.1-2.6.4-1,.8-1.8.9-1.9,0,0,.1-.2.1-.3s.2-.6.4-1.1c.4-.8.5-1.1,1-2.2.1-.2.3-.6.4-.9.5-1.1.6-1.4.7-1.6,0-.1.3-.8.6-1.5.5-1.2.9-1.8,1-1.7,0,0,1.1,2,2.3,4.4,1.8,3.5,2.2,4.4,2.1,4.6-.1.2-.5.2-3.2.3h-3.1s-.3.7-.3.7c-.5,1.1-1.4,3.1-1.8,3.9-.2.4-.3.8-.3.8,0,0,3.8,0,8.5,0,8.3,0,8.4,0,8.4-.3s0-.2-.1-.2c0,0-.2,0-.3-.2-.1-.3-1.3-2.7-1.3-2.8s-.2-.4-.4-.9c-.9-1.9-1.2-2.6-1.4-3,0-.2-.4-.8-.6-1.3-.5-1.2-.8-1.8-1.2-2.7-.5-1.2-.7-1.5-1.1-2.5-.2-.5-.5-1.1-.6-1.3,0-.2-.4-.8-.6-1.3-.5-1.1-.8-1.7-1.2-2.7-.2-.4-.5-1-.6-1.3-.1-.3-.4-.9-.6-1.3-.2-.4-.5-1-.6-1.3-.1-.3-.2-.6-.2-.7,0-.1-.4-.2-1.5-.2h-1.5l-.4.9ZM-743.7,3.5c-.1.2-.1,23.2,0,23.3,0,0,3.8,0,8.4,0h8.3v-5.4h-6.1c-4.7,0-6.1-.1-6.2-.2,0,0-.1-.9-.1-1.8s0-1.7.2-1.8c.1,0,1.9-.2,5.8-.2h5.6v-5h-5.6c-5.4-.1-5.6-.1-5.8-.4-.1-.2-.2-.6-.2-1.6s0-1.4.2-1.6c.2-.2.8-.2,5.3-.2s5.4,0,5.4-.7,0-.5.2-.9c.1-.3.3-1,.4-1.4.1-.5.3-1.1.4-1.4.1-.3.1-.6,0-.7-.2-.2-16.2-.3-16.3-.1ZM-722.4,3.5c-.1.1-1,2.4-1.3,3.3,0,.1-.2.5-.3.7-.4.9-.8.9,6,.9h6.1c0,0,.6.4.6.4.8.4,1.7,1.4,2,2.1.6,1.3.7,1.9.6,3.6,0,2.5-.6,3.9-2,5.3-1.3,1.4-1.1,1.3-5.8,1.3-4.1,0-4.1,0-4.3-.2-.1-.2-.1-1.5-.1-4.3,0-2.2,0-4.1,0-4.2-.1-.2-3.5-.2-3.7,0-.1.1-.2,1.8-.2,6.9s0,6.9,0,7.1v.3h6.8c4.4,0,6.9,0,7.3-.1,2.8-.6,5.1-3.4,6.1-7.3.4-1.6.5-2.4.6-4.3,0-2-.1-3.7-.6-5.1-.1-.3-.2-.7-.2-.8s-.3-.8-.6-1.5c-.5-1.1-.8-1.5-1.5-2.2-.5-.5-1.1-1-1.5-1.2-1.6-.7-1.2-.7-7.8-.7-3.4,0-6.3,0-6.3,0Z"/>
      </g>
    </g>
  </g>
  <g id="_123_Milhas" data-name="123 Milhas">
    <g class="cls-8">
      <image width="500" height="152" transform="translate(-593.3 .1) scale(.2)" xlink:href="../../../../../../../logos parceiros/123milhas-logo-pb.png"/>
    </g>
  </g>
  <g id="Smart_Fit" data-name="Smart Fit">
    <g class="cls-7">
      <g>
        <path class="cls-3" d="M-337.9,21.3V5.6c0-5.4,5.6-6.5,9.6-5v3c-2.8-1.1-5.9-.8-5.9,2.6h4.5v3h-4.5v12.1h-3.7c0,0,0,0,0,0Z"/>
        <path class="cls-3" d="M-320.1,3.9h2.8l.6,2.3h3.4v3h-3.1v7c0,1.4.6,2.1,1.8,2.1h1.9v3h-3.7c-2.5,0-3.8-1.4-3.8-4V3.9h0Z"/>
        <rect class="cls-3" x="-326.7" y="6.2" width="3.8" height="15.1"/>
        <rect class="cls-3" x="-326.7" y=".8" width="3.8" height="3.1"/>
        <path class="cls-3" d="M-309.3,21.3c-3.3,5.3-9.2,8.7-15.8,8.7s-12.5-3.5-15.8-8.7c3.9,3.6,9.6,5.8,15.8,5.8,6.3,0,11.9-2.2,15.8-5.8"/>
        <path class="cls-3" d="M-391.2,17.8v-2c1.1.4,2.4.7,3.8.7s1.6-.3,1.6-1-.3-1-1.1-1h-1.7c-2,0-3-1-3-3s1.5-3.1,4.4-3.1,2.4.2,3.5.6v2c-1.1-.4-2.3-.7-3.6-.7s-2,.3-2,1,.4,1,1.2,1h1.6c2.2,0,3.3,1,3.3,3s-1.4,3.1-4.2,3.1-2.6-.2-3.7-.6M-381.6,18.3v-9.8h1.9l.3,1.2c1.1-.9,2.3-1.2,3.3-1.2s2.1.4,2.6,1.4c1.2-.9,2.4-1.4,3.5-1.4,2.1,0,3.1,1.2,3.1,3.7v6.1h-2.5v-6.2c0-1.1-.5-1.6-1.4-1.6s-1.5.4-2.3,1.2v6.6h-2.5v-6.2c0-1.1-.4-1.6-1.4-1.6s-1.6.4-2.3,1.2v6.6h-2.4,0ZM-365,15.2c0-2,1.4-3,4.2-3s1.6,0,2.3.2v-.6c0-.9-.8-1.3-2.5-1.3s-2.1.2-3.2.4v-2c1.1-.3,2.1-.4,3.2-.4,3.3,0,5,1.1,5,3.2v6.6h-1.2l-1.1-.7c-.8.5-1.7.7-2.7.7-2.7,0-4-1-4-3.1h0ZM-358.5,14.3c-.6-.1-1.4-.2-2.3-.2s-1.8.4-1.8,1.1.5,1.1,1.5,1.1,1.9-.3,2.6-.8v-1.3h0,0ZM-353.6,18.3v-9.8h1.9l.3,1.2c.8-.9,1.7-1.2,2.7-1.2v2c-.9,0-1.7.4-2.5,1.2v6.6h-2.4,0ZM-347.1,6.9h1.8l.4,1.6h2.3v2h-2v4.5c0,.9.4,1.4,1.2,1.4h.8v2h-2c-1.6,0-2.5-.9-2.5-2.7V6.9h0Z"/>
      </g>
    </g>
  </g>
  <g id="_123_Milhas-2" data-name="123 Milhas">
    <g class="cls-6">
      <g class="cls-11">
        <image width="405" height="126" transform="translate(-215.3 -3.2) scale(.3)" xlink:href="../../../../../../../logos parceiros/gdg-logo-pb.png"/>
      </g>
    </g>
  </g>
  <g class="cls-10">
    <g class="cls-9">
      <image class="cls-12" width="1536" height="864" transform="translate(3.9 -3.4) scale(0)" xlink:href="p1-1.png"/>
    </g>
  </g>
</svg>