<?xml version="1.0" encoding="UTF-8"?><svg id="Camada_1" xmlns="http://www.w3.org/2000/svg" viewBox="0 0 162.62 23.55"><defs><style>.cls-1{fill:#0f9d58;}.cls-1,.cls-2,.cls-3,.cls-4,.cls-5{stroke-width:0px;}.cls-2{fill:#4285f4;}.cls-3{fill:#ea4335;}.cls-4{fill:#fbbc04;}.cls-5{fill:#656c73;}</style></defs><path class="cls-3" d="M11.77,11.87l7.93-4.61c1.82-1.07,2.46-3.43,1.39-5.36-1.07-1.82-3.43-2.46-5.36-1.39L2.02,8.45l9.75,3.43Z"/><path class="cls-2" d="M17.66,23.55c1.39,0,2.68-.75,3.32-1.93,1.07-1.82.43-4.28-1.39-5.36l-13.71-7.93c-1.82-1.07-4.28-.43-5.36,1.39-1.07,1.82-.43,4.28,1.39,5.36l13.71,7.93c.75.43,1.39.54,2.04.54Z"/><path class="cls-4" d="M31.26,23.55c.64,0,1.29-.21,1.93-.54l13.71-7.93-9.53-3.53-8.03,4.61c-1.82,1.07-2.46,3.43-1.39,5.36.75,1.39,2.04,2.04,3.32,2.04Z"/><path class="cls-1" d="M44.97,15.73c1.39,0,2.68-.75,3.32-1.93,1.07-1.82.43-4.28-1.39-5.36L33.19.52c-1.82-1.07-4.28-.43-5.36,1.39-1.07,1.82-.43,4.28,1.39,5.36l13.71,7.93c.64.32,1.39.54,2.04.54Z"/><path class="cls-5" d="M64.09,10.8v1.93h6.53c0,.75-.21,1.5-.43,2.14-.32.64-.64,1.29-1.07,1.71-.54.64-1.29,1.18-2.04,1.5-.86.32-1.82.54-3,.54s-2.36-.21-3.43-.86c-1.07-.64-1.93-1.5-2.57-2.57-.64-1.07-.96-2.36-.96-3.75s.32-2.68.96-3.75c.64-1.07,1.5-1.93,2.57-2.57,1.07-.54,2.14-.86,3.43-.86.96,0,1.93.21,2.78.54.86.43,1.61.96,2.14,1.61l1.5-1.5c-.75-.86-1.61-1.5-2.78-1.93-1.07-.43-2.36-.64-3.64-.64-1.71,0-3.21.32-4.61,1.18-1.39.75-2.46,1.93-3.32,3.32-.75,1.39-1.18,3-1.18,4.71s.32,3.32,1.18,4.71,1.93,2.46,3.32,3.32c1.39.86,2.89,1.18,4.5,1.07,2.68,0,4.82-.96,6.53-2.68.75-.75,1.29-1.61,1.61-2.68.32-1.07.54-2.14.54-3.21,0-.43,0-.86-.11-1.29h-8.46Z"/><path class="cls-5" d="M84.2,3.84c-1.29-.64-2.89-1.07-4.71-1.07h-5.36v17.57h5.36c1.82,0,3.32-.32,4.71-1.07,1.39-.75,2.36-1.82,3.11-3.11.75-1.39,1.07-2.89,1.07-4.61s-.32-3.32-1.07-4.61c-.75-1.29-1.71-2.36-3.11-3.11ZM84.41,16.59c-1.18,1.18-2.89,1.82-4.93,1.82h-3.21V4.7h3.21c2.04,0,3.75.64,4.93,1.82,1.18,1.18,1.82,2.89,1.82,5.03s-.64,3.86-1.82,5.03Z"/><path class="cls-5" d="M98.95,10.8v1.93h6.53c0,.75-.21,1.5-.43,2.14-.32.64-.64,1.29-1.07,1.71-.54.64-1.29,1.18-2.04,1.5-.86.32-1.82.54-3,.54s-2.36-.21-3.43-.86c-1.07-.64-1.93-1.5-2.57-2.57-.64-1.07-.96-2.36-.96-3.75s.32-2.68.96-3.75c.64-1.07,1.5-1.93,2.57-2.57,1.07-.54,2.14-.86,3.43-.86.96,0,1.93.21,2.78.54.86.43,1.61.96,2.14,1.61l1.5-1.5c-.75-.86-1.61-1.5-2.78-1.93-1.07-.43-2.36-.64-3.64-.64-1.71,0-3.21.32-4.61,1.18-1.39.75-2.46,1.93-3.32,3.32-.75,1.39-1.18,3-1.18,4.71s.32,3.32,1.18,4.71,1.93,2.46,3.32,3.32c1.39.86,3,1.18,4.5,1.07,2.68,0,4.82-.96,6.53-2.68.75-.75,1.29-1.61,1.61-2.68s.54-2.14.54-3.21c0-.43,0-.86-.11-1.29h-8.46Z"/><path class="cls-5" d="M126.54,11.46c-.72-.32-1.67-.64-2.85-.96-.98-.27-1.74-.52-2.28-.73-.54-.21-.99-.53-1.36-.94-.37-.41-.55-.94-.55-1.59,0-.91.31-1.62.93-2.12.62-.51,1.41-.76,2.39-.76,1.05,0,1.89.26,2.52.78.63.52.99,1.13,1.08,1.81h2.57c-.14-1.39-.74-2.5-1.81-3.34-1.07-.84-2.45-1.26-4.13-1.26-1.17,0-2.2.21-3.1.62-.9.41-1.6.99-2.1,1.75-.5.75-.75,1.62-.75,2.6,0,1.11.25,2,.76,2.66.51.66,1.11,1.14,1.83,1.45.71.31,1.66.62,2.84.93.96.26,1.72.5,2.29.72.57.22,1.04.55,1.41.98.38.43.57.99.57,1.67,0,.87-.32,1.59-.96,2.15-.64.56-1.52.84-2.64.84s-2.05-.29-2.66-.86c-.61-.57-.96-1.28-1.04-2.12h-2.49c.02.98.29,1.84.82,2.58.53.75,1.26,1.33,2.2,1.75.93.42,1.99.63,3.18.63s2.31-.24,3.21-.72c.91-.48,1.59-1.11,2.06-1.88s.69-1.59.69-2.47c0-1.13-.26-2.03-.77-2.69-.51-.66-1.13-1.15-1.85-1.47Z"/><path class="cls-5" d="M139.27,15.82c0,.81-.21,1.47-.64,1.99-.43.52-1.08.78-1.95.78s-1.53-.27-1.97-.82c-.44-.55-.66-1.26-.68-2.13h-2.34c0,1.56.45,2.79,1.36,3.69.91.9,2.12,1.35,3.63,1.35s2.69-.44,3.6-1.32c.91-.88,1.36-2.06,1.36-3.54V2.57h-2.37v13.24Z"/><path class="cls-5" d="M157.67,17.76c-.93.57-2.05.86-3.36.86s-2.37-.29-3.37-.87c-.99-.58-1.77-1.41-2.34-2.48s-.85-2.32-.85-3.74.28-2.7.85-3.77c.57-1.07,1.35-1.9,2.34-2.48.99-.58,2.12-.87,3.37-.87s2.42.29,3.36.87c.93.58,1.65,1.41,2.15,2.49h2.8c-.67-1.73-1.73-3.07-3.19-4.01-1.46-.94-3.16-1.41-5.12-1.41-1.66,0-3.18.39-4.54,1.18-1.36.79-2.44,1.88-3.23,3.28-.79,1.4-1.18,2.97-1.18,4.72s.39,3.32,1.18,4.71c.79,1.39,1.86,2.47,3.23,3.25,1.36.78,2.88,1.17,4.54,1.17,1.95,0,3.66-.47,5.12-1.4,1.46-.93,2.52-2.26,3.19-3.97h-2.8c-.5,1.08-1.21,1.91-2.15,2.48Z"/></svg>