<?xml version="1.0" encoding="UTF-8"?>
<svg id="Camada_1" data-name="Camada 1" xmlns="http://www.w3.org/2000/svg" xmlns:xlink="http://www.w3.org/1999/xlink" version="1.1" viewBox="0 0 127 30">
  <defs>
    <style>
      .cls-1 {
        clip-path: url(#clippath);
      }

      .cls-2 {
        fill: none;
      }

      .cls-2, .cls-3 {
        stroke-width: 0px;
      }

      .cls-3 {
        fill: #fff;
      }
    </style>
    <clipPath id="clippath">
      <rect class="cls-2" x="-8" y="0" width="143" height="30"/>
    </clipPath>
  </defs>
  <g id="Smart_Fit" data-name="Smart Fit">
    <g class="cls-1">
      <g>
        <path class="cls-3" d="M76.1,21.3V5.6c0-5.4,5.6-6.5,9.6-5v3c-2.8-1.1-5.9-.8-5.9,2.6h4.5v3h-4.5v12.1h-3.7c0,0,0,0,0,0Z"/>
        <path class="cls-3" d="M93.9,3.9h2.8l.6,2.3h3.4v3h-3.1v7c0,1.4.6,2.1,1.8,2.1h1.9v3h-3.7c-2.5,0-3.8-1.4-3.8-4V3.9h0Z"/>
        <rect class="cls-3" x="87.3" y="6.2" width="3.8" height="15.1"/>
        <rect class="cls-3" x="87.3" y=".8" width="3.8" height="3.1"/>
        <path class="cls-3" d="M104.7,21.3c-3.3,5.3-9.2,8.7-15.8,8.7s-12.5-3.5-15.8-8.7c3.9,3.6,9.6,5.8,15.8,5.8,6.3,0,11.9-2.2,15.8-5.8"/>
        <path class="cls-3" d="M22.8,17.8v-2c1.1.4,2.4.7,3.8.7s1.6-.3,1.6-1-.3-1-1.1-1h-1.7c-2,0-3-1-3-3s1.5-3.1,4.4-3.1,2.4.2,3.5.6v2c-1.1-.4-2.3-.7-3.6-.7s-2,.3-2,1,.4,1,1.2,1h1.6c2.2,0,3.3,1,3.3,3s-1.4,3.1-4.2,3.1-2.6-.2-3.7-.6M32.4,18.3v-9.8h1.9l.3,1.2c1.1-.9,2.3-1.2,3.3-1.2s2.1.4,2.6,1.4c1.2-.9,2.4-1.4,3.5-1.4,2.1,0,3.1,1.2,3.1,3.7v6.1h-2.5v-6.2c0-1.1-.5-1.6-1.4-1.6s-1.5.4-2.3,1.2v6.6h-2.5v-6.2c0-1.1-.4-1.6-1.4-1.6s-1.6.4-2.3,1.2v6.6h-2.4,0ZM49,15.2c0-2,1.4-3,4.2-3s1.6,0,2.3.2v-.6c0-.9-.8-1.3-2.5-1.3s-2.1.2-3.2.4v-2c1.1-.3,2.1-.4,3.2-.4,3.3,0,5,1.1,5,3.2v6.6h-1.2l-1.1-.7c-.8.5-1.7.7-2.7.7-2.7,0-4-1-4-3.1h0ZM55.5,14.3c-.6-.1-1.4-.2-2.3-.2s-1.8.4-1.8,1.1.5,1.1,1.5,1.1,1.9-.3,2.6-.8v-1.3h0,0ZM60.4,18.3v-9.8h1.9l.3,1.2c.8-.9,1.7-1.2,2.7-1.2v2c-.9,0-1.7.4-2.5,1.2v6.6h-2.4,0ZM66.9,6.9h1.8l.4,1.6h2.3v2h-2v4.5c0,.9.4,1.4,1.2,1.4h.8v2h-2c-1.6,0-2.5-.9-2.5-2.7V6.9h0Z"/>
      </g>
    </g>
  </g>
</svg>